<?xml version="1.0" encoding="utf-8"?>
<!-- Generator: Adobe Illustrator 24.0.1, SVG Export Plug-In . SVG Version: 6.00 Build 0)  -->
<svg version="1.1" id="Layer_1" xmlns="http://www.w3.org/2000/svg" xmlns:xlink="http://www.w3.org/1999/xlink" x="0px" y="0px"
	 viewBox="0 0 50 50" style="enable-background:new 0 0 50 50;" xml:space="preserve">
<style type="text/css">
	.st0{fill:#232323;}
</style>
<path class="st0" d="M23.57,2.67L8.8,17.4c-0.73,0.74-0.72,1.93,0.02,2.66c0.74,0.73,1.93,0.72,2.66-0.02L23.05,8.46v37.78
	c0,0.9,0.73,1.63,1.63,1.63h0.63c0.9,0,1.63-0.73,1.63-1.63V8.5l11.58,11.58c0.73,0.74,1.92,0.75,2.66,0.02
	c0.74-0.73,0.75-1.92,0.02-2.66L26.4,2.67c-0.37-0.37-0.89-0.57-1.41-0.54C24.46,2.1,23.94,2.3,23.57,2.67z"/>
</svg>
