<svg id="Layer_1" data-name="Layer 1" xmlns="http://www.w3.org/2000/svg" viewBox="0 0 2400 683"><defs><style>.cls-1{fill:#d2f7e3;}.cls-1,.cls-2,.cls-3,.cls-4,.cls-5,.cls-6,.cls-7{fill-rule:evenodd;}.cls-2{fill:#c30;}.cls-3{fill:#f2a78e;}.cls-4{fill:#478779;}.cls-5{fill:#ffa100;}.cls-6{fill:#ffd791;}.cls-7{fill:#ffbd4a;}.cls-8{fill:#25b6ef;}.cls-9{fill:none;}.cls-10{fill:#5e8e33;}.cls-11{fill:#674b3d;}.cls-12{fill:#ffac3c;}.cls-13{fill:#e69937;}.cls-14{fill:#7dcde8;}.cls-15{fill:#5bc2e3;}.cls-16{fill:#5c4336;}.cls-17{fill:#ffeda3;}.cls-18{fill:#f5e39d;}.cls-19{fill:#ad976c;}.cls-20{font-size:14.92px;font-family:Rockwell-ExtraBold, Rockwell Extra Bold;font-weight:800;}.cls-21{fill:#f90000;}</style></defs><title>beach</title><path class="cls-1" d="M1050.09,440l12.4-14.92a8.15,8.15,0,0,1,6.45-3h27.17a8.12,8.12,0,0,1,5.94,2.46l4.68,4.69a8.11,8.11,0,0,0,5.94,2.46h12.54a8.11,8.11,0,0,1,6.41,3l9,10.66-83.55,1.21Z" transform="translate(0 -117)"/><path class="cls-2" d="M1010.26,439.38l40.62,33.88,103.76-2.86,5.72-29.16a2.7,2.7,0,0,0-2.65-3.23h-9a34,34,0,0,0-12.53,2.28l-.57.21a34,34,0,0,1-12.53,2.28h-39.22a23.91,23.91,0,0,1-12.45-3.34l-4.61-2.67a23.84,23.84,0,0,0-12.51-3.34l-41.95.11a3.31,3.31,0,0,0-2.11,5.84Z" transform="translate(0 -117)"/><polygon class="cls-3" points="1020.51 330.94 1025.46 335.06 1158.24 335.06 1159.05 330.94 1020.51 330.94"/><path class="cls-4" d="M1079.17,439.92a2.35,2.35,0,1,0-2.35-2.35A2.35,2.35,0,0,0,1079.17,439.92Z" transform="translate(0 -117)"/><path class="cls-4" d="M1090.15,435.23a2.35,2.35,0,1,1-2.34,2.34A2.34,2.34,0,0,1,1090.15,435.23Z" transform="translate(0 -117)"/><path class="cls-4" d="M1101.14,435.23a2.35,2.35,0,1,1-2.34,2.34A2.34,2.34,0,0,1,1101.14,435.23Z" transform="translate(0 -117)"/><path class="cls-4" d="M1112.13,435.23a2.35,2.35,0,1,1-2.34,2.34A2.34,2.34,0,0,1,1112.13,435.23Z" transform="translate(0 -117)"/><path class="cls-4" d="M1123.11,439.92a2.35,2.35,0,1,0-2.34-2.35A2.36,2.36,0,0,0,1123.11,439.92Z" transform="translate(0 -117)"/><polygon class="cls-1" points="1080.25 317.38 1080.25 211.41 1081.45 213.28 1084.31 306.15 1080.25 317.38"/><path class="cls-5" d="M1081.54,333.13,1157.71,438l-18.62-18.39h-54.91l-2.64-86.49Zm-1.29,0-70.58,101.81,9.25-9.37h35.4v7.88l1.54-8.5Z" transform="translate(0 -117)"/><path class="cls-6" d="M1052.23,373.55l-2.36,3.4h18.74l.9-3.4Zm-7.29,10.51-7.29,10.51h26.28l2.79-10.51Z" transform="translate(0 -117)"/><path class="cls-6" d="M1110.9,373.55l2.47,3.4h-30.49l-.11-3.4Zm7.63,10.51,7.64,10.51h-42.76l-.32-10.51Z" transform="translate(0 -117)"/><path class="cls-7" d="M1081.54,333.13l15.65,21.54h-15l-.66-21.54Zm-7,21.54h-9.22l14.94-21.54Z" transform="translate(0 -117)"/><rect class="cls-8" y="353.14" width="2400" height="329.86"/><polygon class="cls-9" points="112.41 197.91 112.41 198.28 112.35 198.28 112.35 218.65 112.41 218.65 116.5 218.65 162.73 218.65 162.73 197.91 112.41 197.91"/><polygon class="cls-9" points="179.58 197.91 179.58 198.28 179.58 218.65 183.67 218.65 229.96 218.65 229.96 197.91 179.58 197.91"/><polygon class="cls-9" points="111.33 87.91 111.28 87.91 111.28 87.91 111.33 87.91 111.33 87.91"/><polygon class="cls-9" points="246.81 198.28 246.81 198.28 246.81 218.65 246.81 218.65 250.9 218.65 297.19 218.65 297.19 197.91 246.81 197.91 246.81 198.28"/><polygon class="cls-9" points="132.16 87.91 132.1 87.91 132.1 87.91 132.16 87.91 132.16 87.91"/><polygon class="cls-10" points="215.26 87.91 215.26 87.91 215.26 87.91 215.26 87.91"/><polygon class="cls-10" points="194.49 87.91 194.49 87.91 194.49 87.91 194.49 87.91"/><polygon class="cls-10" points="236.04 87.91 236.04 87.91 236.04 87.91 236.04 87.91"/><polygon class="cls-10" points="298.48 87.91 298.42 87.91 298.42 87.91 298.48 87.91 298.48 87.91"/><polygon class="cls-10" points="256.82 87.91 256.76 87.91 256.76 87.91 256.82 87.91 256.82 87.91"/><polygon class="cls-10" points="277.65 87.91 277.59 87.91 277.59 87.91 277.65 87.91 277.65 87.91"/><polygon class="cls-10" points="297.19 193.44 246.81 193.44 246.81 197.91 297.19 197.91 297.19 195.86 297.19 193.44"/><polygon class="cls-10" points="162.73 197.91 162.73 195.86 162.73 193.44 112.41 193.44 112.41 197.91 162.73 197.91"/><polygon class="cls-10" points="229.96 197.91 229.96 195.86 229.96 193.44 179.58 193.44 179.58 197.91 229.96 197.91"/><polygon class="cls-10" points="173.71 87.91 173.71 87.91 173.71 87.91 173.71 87.91"/><rect class="cls-11" x="116.5" y="218.65" width="46.24" height="10.34"/><rect class="cls-11" x="112.35" y="218.65" width="0.05" height="10.34"/><rect class="cls-11" x="246.81" y="218.65" height="10.34"/><rect class="cls-11" x="250.9" y="218.65" width="46.29" height="10.34"/><rect class="cls-11" x="183.67" y="218.65" width="46.29" height="10.34"/><path class="cls-12" d="M134.69,238.54v-10.3h7.2a200.59,200.59,0,0,1,13.23-16l-2.18-2.18h-.06l-10.39,10.4-10.38-10.4h-.06l-10.39,10.4-10.39-10.4h0l-10.39,10.4L95.5,215.2V210h0v90.11h12.36A200.93,200.93,0,0,1,134.69,238.54Z" transform="translate(0 -117)"/><path class="cls-12" d="M303.7,215.36v84.73H314V215.36l-5.16,5.17Z" transform="translate(0 -117)"/><path class="cls-12" d="M298.42,210.14,288,220.53l-10.39-10.39h-.06l-10.38,10.39-10.39-10.39h-.06l-5.27,5.27-5.06,5.07L236,210.08l-10.39,10.4-10.39-10.4-10.38,10.4-10.39-10.4-10.39,10.4-5.33-5.28v-.11l-5-5h-.06l-10.39,10.4-8.2-8.22a200.59,200.59,0,0,0-13.23,16H192.6v58H134.69V238.54a200.93,200.93,0,0,0-26.83,61.55H303.7V215.36l-5.22-5.22ZM274.58,286.2H216.66v-58h57.92Z" transform="translate(0 -117)"/><path class="cls-13" d="M136.46,209.22l-4.3-4.31h-.06l-4.3,4.31Z" transform="translate(0 -117)"/><path class="cls-13" d="M152.88,205l-4.25,4.26h8.55Z" transform="translate(0 -117)"/><path class="cls-13" d="M115.63,209.22l-4.3-4.31h-.06l-4.3,4.31Z" transform="translate(0 -117)"/><path class="cls-13" d="M314,215.36l.27-.27v-5.25l-.27.27Z" transform="translate(0 -117)"/><path class="cls-13" d="M219.57,209.22l-4.31-4.31h0l-4.3,4.31Z" transform="translate(0 -117)"/><polygon class="cls-13" points="261.12 92.22 256.82 87.91 256.76 87.91 252.48 92.22 261.12 92.22"/><path class="cls-13" d="M240.35,209.22,236,204.91h0l-4.31,4.31Z" transform="translate(0 -117)"/><path class="cls-13" d="M173.71,204.91h0l-4.3,4.31H178Z" transform="translate(0 -117)"/><path class="cls-13" d="M198.79,209.22l-4.3-4.31h0l-4.31,4.31Z" transform="translate(0 -117)"/><path class="cls-13" d="M282,209.22l-4.3-4.31h-.06l-4.3,4.31Z" transform="translate(0 -117)"/><path class="cls-13" d="M294.12,209.22h8.66l-4.3-4.31h-.06Z" transform="translate(0 -117)"/><path class="cls-13" d="M308.87,215.31l-5.17-5.17v5.22l5.17,5.17,5.16-5.17v-5.25Z" transform="translate(0 -117)"/><path class="cls-13" d="M157.18,209.22h-8.55l-6.08,6.09-6.09-6.09H127.8l-6.08,6.09-6.09-6.09H107l-6.08,6.09L95.5,210v5.22l5.33,5.28,10.39-10.4h0l10.39,10.4,10.39-10.4h.06l10.38,10.4,10.39-10.4h.06l2.18,2.18c.81-.88,1.63-1.77,2.46-2.64Z" transform="translate(0 -117)"/><path class="cls-13" d="M294.12,209.22,288,215.31,282,209.22h-8.66l-6.08,6.09-6.09-6.09h-8.64l-6,6.09-6.08-6.09h-8.62l-6.08,6.09-6.08-6.09H211l-6.08,6.09-6.09-6.09h-8.61l-6.08,6.09L178,209.22h-8.61l-6.09,6.09-5.74-5.69c-.83.87-1.65,1.76-2.46,2.64l8.2,8.22,10.39-10.4h.06l5,5v.11l5.33,5.28,10.39-10.4,10.39,10.4,10.38-10.4,10.39,10.4L236,210.08l10.39,10.4,5.06-5.07,5.27-5.27h.06l10.39,10.39,10.38-10.39h.06L288,220.53l10.38-10.39h.06l5.22,5.22v-5.22l-.92-.92Z" transform="translate(0 -117)"/><path class="cls-11" d="M107.86,300.09H95.5v10.35h10.07C106.24,307,107,303.51,107.86,300.09Z" transform="translate(0 -117)"/><rect class="cls-11" x="303.7" y="183.09" width="10.33" height="10.34"/><path class="cls-11" d="M105.57,310.44H303.7V300.09H107.86C107,303.51,106.24,307,105.57,310.44Z" transform="translate(0 -117)"/><rect class="cls-11" x="95.5" y="183.09" width="12.36"/><rect class="cls-11" x="303.7" y="183.09" width="10.33"/><rect class="cls-11" x="107.86" y="183.09" width="195.84"/><path class="cls-13" d="M134.69,228.24v10.3q3.44-5.26,7.2-10.3Z" transform="translate(0 -117)"/><path class="cls-13" d="M192.6,286.2v-58H141.89q-3.76,5-7.2,10.3V286.2Zm-8.12-49.88v41.74H142.82V236.32Z" transform="translate(0 -117)"/><rect class="cls-11" x="297.19" y="228.99" width="16.85" height="99.85"/><polygon class="cls-11" points="303.7 197.91 297.19 197.91 297.19 218.65 314.03 218.65 314.03 198.28 303.7 196.8 303.7 197.91"/><polygon class="cls-11" points="297.19 197.91 303.7 197.91 303.7 196.8 297.19 195.86 297.19 197.91"/><rect class="cls-11" x="297.19" y="218.65" width="16.85" height="10.34"/><polygon class="cls-11" points="244.19 197.91 229.96 197.91 229.96 218.65 246.81 218.65 246.81 198.28 244.19 197.91"/><rect class="cls-11" x="229.96" y="228.99" width="16.85" height="77.43"/><polygon class="cls-11" points="229.96 197.91 244.19 197.91 229.96 195.86 229.96 197.91"/><rect class="cls-11" x="229.96" y="218.65" width="16.85" height="10.34"/><polygon class="cls-11" points="176.96 197.91 162.73 197.91 162.73 218.65 179.58 218.65 179.58 198.28 176.96 197.91"/><rect class="cls-11" x="162.73" y="228.99" width="16.85" height="74.62"/><polygon class="cls-11" points="162.73 197.91 176.96 197.91 162.73 195.86 162.73 197.91"/><rect class="cls-11" x="162.73" y="218.65" width="16.85" height="10.34"/><path class="cls-11" d="M112.35,315.28l-2.57-.37h-5c0-.24.09-.47.13-.7l-9.39-1.35v22.79h16.85Z" transform="translate(0 -117)"/><rect class="cls-11" x="95.5" y="228.99" width="16.85" height="55"/><path class="cls-11" d="M104.76,314.91h5l-4.89-.7C104.85,314.44,104.8,314.67,104.76,314.91Z" transform="translate(0 -117)"/><rect class="cls-11" x="95.5" y="218.65" width="16.85" height="10.34"/><polygon class="cls-14" points="184.48 119.31 142.82 119.31 142.82 161.06 184.48 119.31"/><polygon class="cls-15" points="184.48 161.06 184.48 119.31 142.82 161.06 184.48 161.06"/><path class="cls-13" d="M216.66,286.2h57.92v-58H216.66Zm8.08-49.88h41.71v41.74H224.74Z" transform="translate(0 -117)"/><polygon class="cls-14" points="224.74 119.31 224.74 161.06 266.45 119.31 224.74 119.31"/><polygon class="cls-15" points="266.45 119.31 224.74 161.06 266.45 161.06 266.45 119.31"/><rect class="cls-16" x="112.35" y="197.91" width="0.05" height="0.37"/><rect class="cls-16" x="112.35" y="193.44" width="0.05" height="4.47"/><polygon class="cls-16" points="109.78 197.91 112.35 198.28 112.35 197.91 109.78 197.91"/><path class="cls-16" d="M105.57,310.44H95.5v2.42l9.39,1.35C105.11,313,105.33,311.69,105.57,310.44Z" transform="translate(0 -117)"/><path class="cls-16" d="M112.35,310.44h-6.78c-.24,1.25-.46,2.51-.68,3.77l4.89.7h2.57Z" transform="translate(0 -117)"/><polygon class="cls-16" points="179.58 198.28 179.58 197.91 176.96 197.91 179.58 198.28"/><polygon class="cls-16" points="176.96 197.91 179.58 197.91 179.58 193.44 162.73 193.44 162.73 195.86 176.96 197.91"/><rect class="cls-16" x="246.81" y="197.91" height="0.38"/><rect class="cls-16" x="246.81" y="193.44" height="4.47"/><polygon class="cls-16" points="244.19 197.91 246.81 198.28 246.81 197.91 244.19 197.91"/><polygon class="cls-16" points="244.19 197.91 246.81 197.91 246.81 193.44 229.96 193.44 229.96 195.86 244.19 197.91"/><polygon class="cls-16" points="303.7 196.8 314.03 198.28 314.03 193.44 303.7 193.44 303.7 196.8"/><polygon class="cls-16" points="297.19 195.86 303.7 196.8 303.7 193.44 297.19 193.44 297.19 195.86"/><rect class="cls-16" x="112.41" y="218.65" width="4.09" height="10.34"/><rect class="cls-16" x="179.58" y="218.65" width="4.09" height="10.34"/><rect class="cls-16" x="246.81" y="218.65" width="4.09" height="10.34"/><path class="cls-17" d="M319.2,196.51l-23-79.51H112l-21.9,79.51a14.71,14.71,0,0,0,.32,8.4L95.5,210v-.76h0v-4.31h66.72a203.5,203.5,0,0,1,18.4-16H136.25a2.53,2.53,0,0,1,0-5.06h51.23q6.93-4.91,14.27-9.22H189.54a2.53,2.53,0,1,1,0-5.06h21.38a200.82,200.82,0,0,1,20.61-9.26H210a2.54,2.54,0,0,1,0-5.07h36.49A201.61,201.61,0,0,1,303.7,147v36.87a2.52,2.52,0,0,1,0,5v16.08h10.6v4.93l4.9-4.93A17.06,17.06,0,0,0,319.2,196.51Zm-76-69.92h44.46a2.57,2.57,0,0,1,2.53,2.53,2.53,2.53,0,0,1-2.53,2.53H243.2a2.53,2.53,0,0,1,0-5.06ZM292.61,146H227.16a2.53,2.53,0,1,1,0-5.06h65.4a2.49,2.49,0,0,1,2.58,2.53A2.53,2.53,0,0,1,292.61,146Z" transform="translate(0 -117)"/><path class="cls-17" d="M303.7,183.82V147a201.61,201.61,0,0,0-57.22,8.24h49.15a2.54,2.54,0,0,1,0,5.07h-64.1a200.82,200.82,0,0,0-20.61,9.26H300a2.5,2.5,0,0,1,2.53,2.53,2.53,2.53,0,0,1-2.53,2.53H201.75q-7.33,4.32-14.27,9.22h116Z" transform="translate(0 -117)"/><path class="cls-17" d="M173.71,204.91h130V188.83l-.27,0H180.62a203.5,203.5,0,0,0-18.4,16Z" transform="translate(0 -117)"/><rect class="cls-17" x="95.5" y="92.22" height="0.76"/><path class="cls-17" d="M148.63,209.22l4.25-4.26,4.3,4.26H158c1.39-1.46,2.81-2.89,4.25-4.31H132.16l4.3,4.31Z" transform="translate(0 -117)"/><polygon class="cls-17" points="314.03 87.91 303.7 87.91 303.7 92.22 314.03 92.22 314.03 93.11 314.3 92.84 314.3 87.91 314.03 87.91"/><path class="cls-17" d="M127.8,209.22l4.3-4.31H111.33l4.3,4.31Z" transform="translate(0 -117)"/><path class="cls-17" d="M111.27,204.91H95.5v4.31H107Z" transform="translate(0 -117)"/><path class="cls-17" d="M231.73,209.22l4.31-4.31H215.26l4.31,4.31Z" transform="translate(0 -117)"/><path class="cls-17" d="M158,209.22h11.44l4.3-4.31H162.22C160.78,206.33,159.36,207.76,158,209.22Z" transform="translate(0 -117)"/><path class="cls-17" d="M190.18,209.22l4.31-4.31H173.71l4.31,4.31Z" transform="translate(0 -117)"/><path class="cls-17" d="M211,209.22l4.3-4.31H194.49l4.3,4.31Z" transform="translate(0 -117)"/><polygon class="cls-17" points="252.48 92.22 256.76 87.91 236.04 87.91 240.35 92.22 252.48 92.22"/><path class="cls-17" d="M273.29,209.22l4.3-4.31H256.82l4.3,4.31Z" transform="translate(0 -117)"/><path class="cls-17" d="M294.12,209.22l4.3-4.31H277.65l4.3,4.31Z" transform="translate(0 -117)"/><polygon class="cls-17" points="302.78 92.22 303.7 92.22 303.7 87.91 298.48 87.91 302.78 92.22"/><path class="cls-17" d="M148.63,209.22H136.46l6.09,6.09Z" transform="translate(0 -117)"/><path class="cls-17" d="M100.89,215.31l6.08-6.09H95.5V210Z" transform="translate(0 -117)"/><path class="cls-17" d="M158,209.22h-.79l.4.4Z" transform="translate(0 -117)"/><polygon class="cls-17" points="308.87 98.31 314.03 93.11 314.03 92.22 303.7 92.22 303.7 93.14 308.87 98.31"/><path class="cls-17" d="M127.8,209.22H115.63l6.09,6.09Z" transform="translate(0 -117)"/><path class="cls-17" d="M225.65,215.31l6.08-6.09H219.57Z" transform="translate(0 -117)"/><polygon class="cls-17" points="303.7 93.14 303.7 92.22 302.78 92.22 303.7 93.14"/><path class="cls-17" d="M163.32,215.31l6.09-6.09H158l-.39.4Z" transform="translate(0 -117)"/><path class="cls-17" d="M204.88,215.31l6.08-6.09H198.79Z" transform="translate(0 -117)"/><path class="cls-17" d="M288,215.31l6.08-6.09H282Z" transform="translate(0 -117)"/><path class="cls-17" d="M267.21,215.31l6.08-6.09H261.12Z" transform="translate(0 -117)"/><polygon class="cls-17" points="246.43 98.31 252.48 92.22 240.35 92.22 246.43 98.31"/><path class="cls-17" d="M184.1,215.31l6.08-6.09H178Z" transform="translate(0 -117)"/><path class="cls-18" d="M243.2,131.65h44.46a2.53,2.53,0,0,0,2.53-2.53,2.57,2.57,0,0,0-2.53-2.53H243.2a2.53,2.53,0,0,0,0,5.06Z" transform="translate(0 -117)"/><path class="cls-18" d="M292.56,140.92h-65.4a2.53,2.53,0,1,0,0,5.06h65.45a2.53,2.53,0,0,0,2.53-2.53A2.49,2.49,0,0,0,292.56,140.92Z" transform="translate(0 -117)"/><path class="cls-18" d="M210,155.19a2.54,2.54,0,0,0,0,5.07h21.54q7.35-2.82,14.95-5.07Z" transform="translate(0 -117)"/><path class="cls-18" d="M298.16,157.72a2.53,2.53,0,0,0-2.53-2.53H246.48q-7.6,2.25-14.95,5.07h64.1A2.54,2.54,0,0,0,298.16,157.72Z" transform="translate(0 -117)"/><path class="cls-18" d="M189.54,169.52a2.53,2.53,0,1,0,0,5.06h12.21q4.51-2.64,9.17-5.06Z" transform="translate(0 -117)"/><path class="cls-18" d="M302.57,172.05a2.5,2.5,0,0,0-2.53-2.53H210.92q-4.65,2.41-9.17,5.06H300A2.53,2.53,0,0,0,302.57,172.05Z" transform="translate(0 -117)"/><path class="cls-18" d="M136.25,183.8a2.53,2.53,0,0,0,0,5.06h44.37c2.25-1.74,4.53-3.42,6.86-5.06Z" transform="translate(0 -117)"/><path class="cls-18" d="M306,186.33a2.53,2.53,0,0,0-2.26-2.51v5A2.51,2.51,0,0,0,306,186.33Z" transform="translate(0 -117)"/><path class="cls-18" d="M303.7,188.83v-5l-.27,0h-116c-2.33,1.64-4.61,3.32-6.86,5.06H303.43Z" transform="translate(0 -117)"/><path class="cls-19" d="M0,324.36s491.9,24.2,557.5,87.84C616.25,469.2,780,513.12,780,513.12l242.5,88.78c388.75,117.74,1377.5,91,1377.5,104.65V800H0Z" transform="translate(0 -117)"/><g id="meter"><text class="cls-20" transform="translate(2341.86 359.02) scale(1.71 1)">0</text><text class="cls-20" transform="translate(2336.97 429.15) scale(1.71 1)">-1</text><text class="cls-20" transform="translate(2336.97 500.49) scale(1.71 1)">-2</text><text class="cls-20" transform="translate(2341.86 287.34) scale(1.71 1)">1</text><text class="cls-20" transform="translate(2341.86 214.29) scale(1.71 1)">2</text><rect class="cls-21" x="2258.93" y="208.5" width="67.38" height="3.58"/><rect class="cls-21" x="2258.93" y="280.17" width="67.38" height="3.58"/><rect class="cls-21" x="2258.93" y="215.67" width="30.63" height="3.58"/><rect class="cls-21" x="2258.93" y="222.83" width="30.63" height="3.58"/><rect class="cls-21" x="2258.93" y="230" width="30.63" height="3.58"/><rect class="cls-21" x="2258.93" y="237.17" width="30.63" height="3.58"/><rect class="cls-21" x="2258.93" y="251.5" width="30.63" height="3.58"/><rect class="cls-21" x="2258.93" y="258.67" width="30.63" height="3.58"/><rect class="cls-21" x="2258.93" y="265.84" width="30.63" height="3.58"/><rect class="cls-21" x="2258.93" y="273.01" width="30.63" height="3.58"/><rect class="cls-21" x="2258.93" y="244.34" width="42.88" height="3.58"/><rect class="cls-21" x="2258.93" y="351.85" width="67.38" height="3.58"/><rect class="cls-21" x="2258.93" y="287.34" width="30.63" height="3.58"/><rect class="cls-21" x="2258.93" y="294.51" width="30.63" height="3.58"/><rect class="cls-21" x="2258.93" y="301.68" width="30.63" height="3.58"/><rect class="cls-21" x="2258.93" y="308.84" width="30.63" height="3.58"/><rect class="cls-21" x="2258.93" y="323.18" width="30.63" height="3.58"/><rect class="cls-21" x="2258.93" y="330.35" width="30.63" height="3.58"/><rect class="cls-21" x="2258.93" y="337.52" width="30.63" height="3.58"/><rect class="cls-21" x="2258.93" y="344.68" width="30.63" height="3.58"/><rect class="cls-21" x="2258.93" y="316.01" width="42.88" height="3.58"/><rect class="cls-21" x="2258.93" y="423.53" width="67.38" height="3.58"/><rect class="cls-21" x="2258.93" y="359.02" width="30.63" height="3.58"/><rect class="cls-21" x="2258.93" y="366.19" width="30.63" height="3.58"/><rect class="cls-21" x="2258.93" y="373.35" width="30.63" height="3.58"/><rect class="cls-21" x="2258.93" y="380.52" width="30.63" height="3.58"/><rect class="cls-21" x="2258.93" y="394.86" width="30.63" height="3.58"/><rect class="cls-21" x="2258.93" y="402.02" width="30.63" height="3.58"/><rect class="cls-21" x="2258.93" y="409.19" width="30.63" height="3.58"/><rect class="cls-21" x="2258.93" y="416.36" width="30.63" height="3.58"/><rect class="cls-21" x="2258.93" y="387.69" width="42.88" height="3.58"/><rect class="cls-21" x="2258.93" y="495.2" width="67.38" height="3.58"/><rect class="cls-21" x="2258.93" y="430.69" width="30.63" height="3.58"/><rect class="cls-21" x="2258.93" y="437.86" width="30.63" height="3.58"/><rect class="cls-21" x="2258.93" y="445.03" width="30.63" height="3.58"/><rect class="cls-21" x="2258.93" y="452.2" width="30.63" height="3.58"/><rect class="cls-21" x="2258.93" y="466.53" width="30.63" height="3.58"/><rect class="cls-21" x="2258.93" y="473.7" width="30.63" height="3.58"/><rect class="cls-21" x="2258.93" y="480.87" width="30.63" height="3.58"/><rect class="cls-21" x="2258.93" y="488.04" width="30.63" height="3.58"/><rect class="cls-21" x="2258.93" y="459.37" width="42.88" height="3.58"/></g></svg>