<?xml version="1.0" encoding="utf-8"?>
<!-- Generator: Adobe Illustrator 24.0.1, SVG Export Plug-In . SVG Version: 6.00 Build 0)  -->
<svg version="1.1" id="Layer_1" xmlns="http://www.w3.org/2000/svg" xmlns:xlink="http://www.w3.org/1999/xlink" x="0px" y="0px"
	 viewBox="0 0 50 50" style="enable-background:new 0 0 50 50;" xml:space="preserve">
<g>
	<path d="M25,0.55c-9.15,0-16.6,7.44-16.6,16.6c0,3.68,2.17,9.27,6.81,17.6c3.17,5.68,6.33,10.48,6.46,10.69l2.28,3.46
		c0.23,0.35,0.62,0.56,1.04,0.56s0.81-0.21,1.04-0.56l2.28-3.46c0.13-0.2,3.27-4.96,6.46-10.69c4.65-8.33,6.81-13.92,6.81-17.6
		C41.6,7.99,34.15,0.55,25,0.55z M32.61,33.53c-3.15,5.65-6.24,10.33-6.37,10.53L25,45.95l-1.24-1.89
		c-0.13-0.2-3.24-4.93-6.37-10.53c-4.31-7.73-6.5-13.24-6.5-16.39c0-7.78,6.33-14.11,14.11-14.11s14.11,6.33,14.11,14.11
		C39.11,20.29,36.92,25.81,32.61,33.53z"/>
	<path d="M25,7.84c-5.07,0-9.2,4.13-9.2,9.2s4.13,9.2,9.2,9.2s9.2-4.13,9.2-9.2S30.07,7.84,25,7.84z M25,23.76
		c-3.7,0-6.71-3.01-6.71-6.71s3.01-6.71,6.71-6.71c3.7,0,6.71,3.01,6.71,6.71S28.7,23.76,25,23.76z"/>
</g>
</svg>
