<?xml version="1.0" encoding="utf-8"?>
<!-- Generator: Adobe Illustrator 24.0.1, SVG Export Plug-In . SVG Version: 6.00 Build 0)  -->
<svg version="1.1" id="Layer_1" xmlns="http://www.w3.org/2000/svg" xmlns:xlink="http://www.w3.org/1999/xlink" x="0px" y="0px"
	 viewBox="0 0 50 50" style="enable-background:new 0 0 50 50;" xml:space="preserve">
<g>
	<g>
		<path d="M25.37,15.35c0.23-0.14,0.37-0.38,0.37-0.65v-4.43c0.02-0.21-0.07-0.42-0.23-0.56c-0.16-0.16-0.37-0.23-0.58-0.21
			c-0.04,0.02-0.07,0.02-0.09,0.03c-0.35,0.07-0.59,0.39-0.58,0.73v4.43c0,0.26,0.12,0.51,0.37,0.65
			C24.86,15.49,25.14,15.49,25.37,15.35z"/>
		<path d="M32.09,18.51c0.26,0.05,0.56-0.03,0.73-0.26l3.13-3.13c0.24-0.23,0.3-0.56,0.17-0.86c-0.14-0.3-0.45-0.45-0.77-0.42
			c-0.16,0.02-0.31,0.1-0.44,0.23l-3.13,3.15c-0.23,0.18-0.33,0.45-0.26,0.73C31.6,18.23,31.81,18.44,32.09,18.51z"/>
		<path d="M34.5,25.15c0.05,0.4,0.44,0.68,0.84,0.63h4.43c0.26,0,0.51-0.14,0.65-0.37c0.14-0.23,0.14-0.51,0-0.73
			c-0.14-0.24-0.38-0.37-0.65-0.37h-4.64C34.73,24.36,34.43,24.74,34.5,25.15z"/>
		<path d="M10.23,25.78h4.43c0.26,0,0.51-0.14,0.65-0.37c0.14-0.23,0.14-0.51,0-0.73c-0.14-0.24-0.39-0.37-0.65-0.37h-4.64
			c-0.4,0.05-0.7,0.44-0.63,0.84C9.44,25.55,9.81,25.83,10.23,25.78z"/>
		<path d="M17.18,18.25c0.17,0.23,0.45,0.31,0.73,0.26c0.28-0.07,0.49-0.28,0.56-0.56c0.05-0.28-0.04-0.56-0.26-0.73l-3.13-3.15
			c-0.16-0.16-0.39-0.24-0.61-0.23H14.4c-0.26,0.05-0.49,0.26-0.58,0.52c-0.07,0.26,0.02,0.56,0.21,0.75L17.18,18.25z"/>
		<path d="M40.75,28.75h-9.38c0.65-1.08,1.01-2.36,1.01-3.71c0-3.94-3.15-7.12-7.03-7.31c-0.04,0-0.05-0.04-0.07-0.04
			c-0.09-0.02-0.16-0.04-0.23-0.04h-0.12c-0.02,0-0.05,0.02-0.07,0.02c-0.05,0-0.09,0.02-0.14,0.02c0,0.02-0.02,0.02-0.02,0.04
			c-3.92,0.16-7.09,3.36-7.09,7.31c0,1.35,0.37,2.62,1.01,3.71H9.25c-0.49,0-0.87,0.38-0.87,0.87c0,0.49,0.38,0.87,0.87,0.87h10.81
			h2.68h4.51h2.68h10.81c0.49,0,0.87-0.39,0.87-0.87C41.62,29.14,41.24,28.75,40.75,28.75z M20.4,28.75
			c-0.82-1.01-1.31-2.29-1.31-3.71c0-3.25,2.62-5.88,5.86-5.91h0.12c3.24,0.03,5.84,2.68,5.84,5.91c0,1.42-0.49,2.69-1.31,3.71H20.4
			z"/>
	</g>
	<path d="M28.06,36.82c-0.2-0.2-0.51-0.2-0.71,0l-1.97,1.97V34c0-0.28-0.22-0.5-0.5-0.5s-0.5,0.22-0.5,0.5v4.79l-1.97-1.97
		c-0.2-0.2-0.51-0.2-0.71,0c-0.2,0.2-0.2,0.51,0,0.71l2.83,2.83c0,0,0,0,0,0c0.05,0.04,0.1,0.08,0.16,0.11
		c0.12,0.05,0.26,0.05,0.38,0c0.06-0.03,0.12-0.06,0.16-0.11l2.83-2.83C28.25,37.33,28.25,37.01,28.06,36.82z"/>
</g>
</svg>
